<svg width="201" height="233" viewBox="0 0 201 233" fill="none" xmlns="http://www.w3.org/2000/svg">
<path d="M65.3579 169.165L65.729 169.607C65.7495 169.631 65.7684 169.65 65.7932 169.67C66.4935 170.221 67.7198 170.63 69.4721 170.678H69.4994C69.5832 170.675 69.6679 170.678 69.7534 170.687L136.677 178.106V178.107C138.169 178.256 139.515 178.276 140.861 178.183C142.192 178.093 143.509 177.895 144.949 177.607C144.96 177.605 144.968 177.603 144.978 177.6L190.985 165.175L190.986 165.18C191.022 165.171 191.058 165.162 191.095 165.154C192.425 164.884 193.582 164.772 194.55 164.808C194.762 164.816 194.946 164.675 194.993 164.467C195.04 164.259 194.934 164.053 194.739 163.968C194.041 163.667 193.186 163.436 192.213 163.276C192.204 163.274 192.195 163.273 192.186 163.272L192.158 163.27C192.155 163.27 192.153 163.269 192.151 163.269L169.911 160.676C168.952 160.566 168.262 159.699 168.372 158.74C168.481 157.78 169.348 157.091 170.308 157.201L192.552 159.794C192.617 159.802 192.681 159.813 192.744 159.827C192.753 159.829 192.761 159.83 192.769 159.832C194.611 160.136 196.201 160.672 197.403 161.44C198.619 162.215 199.464 163.223 199.835 164.465C200.203 165.697 200.082 167.073 199.366 168.579C198.659 170.066 197.332 171.725 195.258 173.543C195.252 173.549 195.244 173.555 195.237 173.561C195.227 173.57 195.218 173.578 195.209 173.587C178.207 190.706 160.773 208.559 144.278 226.114C144.091 226.307 143.906 226.49 143.724 226.66C141.71 228.54 139.108 229.909 136.21 230.8C136.202 230.802 136.195 230.805 136.187 230.807C136.121 230.832 136.054 230.852 135.984 230.869C135.976 230.87 135.969 230.872 135.961 230.875C132.806 231.809 129.311 232.186 125.842 232.046C119.109 231.775 112.387 229.555 108.395 225.707C108.196 225.516 108.012 225.328 107.84 225.144L107.843 225.142C107.824 225.12 107.804 225.099 107.785 225.076L63.2462 172.069C63.2342 172.056 63.2239 172.045 63.2111 172.032C63.0666 171.896 62.9324 171.756 62.8109 171.612C62.2175 170.914 61.8677 170.138 61.7711 169.347C61.6676 168.502 61.8472 167.658 62.3184 166.88C63.0982 165.592 64.7103 164.544 67.1696 164.193C68.2188 164.043 69.399 164.008 70.6116 163.973C71.0743 163.959 71.5429 163.945 72.1047 163.919C73.0685 163.874 73.886 164.618 73.9313 165.581C73.9766 166.545 73.2327 167.363 72.2689 167.408C71.8131 167.429 71.2573 167.446 70.7074 167.462C69.6248 167.493 68.5712 167.523 67.6622 167.654C66.3941 167.835 65.639 168.205 65.3389 168.629C65.2226 168.794 65.2311 169.009 65.3611 169.164L65.3579 169.165ZM148.238 162.805C147.636 162.855 147.108 162.407 147.058 161.805C147.008 161.203 147.456 160.674 148.058 160.625C150.122 160.448 151.907 160.052 153.434 159.328C154.926 158.621 156.195 157.588 157.27 156.121C157.627 155.635 158.31 155.53 158.797 155.886C159.283 156.243 159.388 156.926 159.032 157.413C157.732 159.187 156.188 160.441 154.366 161.304C152.581 162.149 150.551 162.608 148.238 162.805ZM119.271 160.59C118.572 159.929 118.541 158.826 119.202 158.128C119.863 157.429 120.967 157.398 121.665 158.059C122.315 158.674 123.059 159.286 123.884 159.892C128.785 163.483 135.86 166.089 142.831 166.626C149.645 167.15 156.301 165.688 160.548 161.197C160.958 160.763 161.361 160.278 161.757 159.738C162.795 158.323 163.713 156.631 164.526 154.619C165.108 153.179 165.634 151.584 166.108 149.821C166.143 149.692 166.121 149.567 166.045 149.457C165.969 149.348 165.858 149.284 165.726 149.272L164.826 149.189C149.311 147.755 144.964 147.354 129.988 159.89C129.261 160.498 128.185 160.415 127.56 159.711L127.559 159.712C121.746 153.181 118.639 147.361 118.52 141.035C118.402 134.771 121.253 128.214 127.351 120.182C127.933 119.415 129.027 119.265 129.794 119.847C129.848 119.889 129.9 119.932 129.948 119.979L129.951 119.977L130.607 120.609C135.908 125.706 142.092 131.652 142.183 142.135C142.191 143.098 141.416 143.885 140.452 143.893C139.488 143.901 138.702 143.126 138.694 142.162C138.621 133.858 133.842 128.62 129.322 124.224C129.227 124.132 129.109 124.09 128.978 124.102C128.846 124.114 128.737 124.176 128.66 124.284C124.069 130.742 121.915 136.047 122.008 140.98C122.1 145.857 124.423 150.537 128.786 155.779C128.939 155.963 129.214 155.989 129.4 155.838C144.17 143.777 149.079 144.229 165.141 145.713C166.29 145.819 167.492 145.93 168.515 146.02C168.518 146.02 168.521 146.021 168.524 146.021C168.611 146.027 168.698 146.039 168.785 146.059C169.726 146.267 170.32 147.198 170.112 148.139C169.447 151.111 168.67 153.689 167.769 155.919C166.843 158.212 165.783 160.158 164.576 161.804C164.126 162.417 163.626 163.013 163.08 163.591C158.014 168.948 150.336 170.712 142.572 170.115C134.963 169.529 127.213 166.665 121.819 162.711C120.922 162.053 120.068 161.345 119.271 160.591L119.271 160.59ZM85.0693 154.477C79.0455 150.921 71.263 153.157 63.2758 155.566C63.1124 155.616 62.9978 155.745 62.9705 155.914C62.9422 156.083 63.0081 156.243 63.1475 156.342C65.2135 157.821 66.4021 158.582 67.3941 158.777C68.4861 158.99 69.8578 158.538 72.548 157.652C73.3031 157.403 74.1497 157.124 75.0921 156.827C77.7953 155.973 81.3542 155.17 84.8313 155.293C85.034 155.3 85.2101 155.172 85.2674 154.977C85.3239 154.782 85.2443 154.58 85.0699 154.478L85.0693 154.477ZM61.7414 152.372C74.0982 148.64 86.0894 145.017 93.7734 158.941H93.7726C94.1275 159.586 94.0454 160.413 93.5135 160.979C92.8525 161.682 91.7467 161.716 91.0439 161.055C89.5285 159.627 87.5018 158.991 85.3537 158.824C82.1718 158.578 78.735 159.346 76.1463 160.164C75.1936 160.465 74.3735 160.735 73.6432 160.975C70.38 162.05 68.7149 162.598 66.7243 162.209C64.742 161.822 63.0086 160.565 59.4708 157.999L57.6143 156.652C57.6058 156.646 57.5989 156.641 57.5904 156.636C57.2372 156.415 56.961 156.067 56.8378 155.633C56.5736 154.704 57.1123 153.736 58.0419 153.471C59.1869 153.142 60.4671 152.756 61.742 152.37L61.7414 152.372ZM33.93 143.642C32.023 146.509 29.3448 148.304 26.1781 149.126C22.714 150.025 18.6955 149.729 14.5122 148.371C13.5938 148.073 13.0918 147.087 13.3903 146.168C13.6887 145.25 14.6747 144.748 15.593 145.046C19.1539 146.203 22.501 146.474 25.3016 145.747C27.4934 145.178 29.3686 143.975 30.7575 142.079C30.8472 141.957 30.8678 141.811 30.8148 141.669C30.7617 141.527 30.6514 141.428 30.5035 141.394C29.8937 141.252 29.2626 141.161 28.6204 141.11C25.4385 140.864 22.0017 141.632 19.413 142.449C18.4603 142.75 17.6402 143.021 16.9099 143.261C13.6467 144.336 11.9816 144.884 9.99095 144.495C8.00871 144.108 6.27525 142.85 2.73754 140.285L0.881005 138.938C0.872453 138.932 0.865613 138.927 0.857061 138.922C0.503881 138.701 0.227672 138.352 0.10453 137.919C-0.159704 136.989 0.379032 136.021 1.30858 135.757C2.45363 135.428 3.73375 135.041 5.00873 134.656C17.3656 130.924 29.3568 127.301 37.0408 141.225H37.04C37.3948 141.871 37.3127 142.698 36.7808 143.264C36.1874 143.895 35.2347 143.986 34.5378 143.52C34.4378 143.453 34.3274 143.431 34.2086 143.454C34.0906 143.478 33.9965 143.541 33.9298 143.642L33.93 143.642ZM28.3373 136.762C22.3136 133.207 14.531 135.442 6.54382 137.852C6.38048 137.902 6.2659 138.031 6.23854 138.2C6.21032 138.368 6.27616 138.528 6.41555 138.628C8.48159 140.107 9.6702 140.868 10.6621 141.062C11.7541 141.275 13.1258 140.824 15.8161 139.938C16.5712 139.689 17.4178 139.41 18.3602 139.112C21.0634 138.258 24.6223 137.455 28.0994 137.578C28.302 137.585 28.4782 137.458 28.5355 137.263C28.5919 137.068 28.5124 136.866 28.338 136.763L28.3373 136.762ZM130.134 173.554C121.193 173.43 112.954 170.121 105.961 167.313C103.058 166.147 100.377 165.07 98.0152 164.377C97.0899 164.105 96.5597 163.134 96.8317 162.209C97.1036 161.283 98.0751 160.753 99.0003 161.025C101.518 161.764 104.275 162.871 107.261 164.07C109.499 164.969 111.87 165.921 114.343 166.796C114.55 166.869 114.777 166.779 114.878 166.583C114.979 166.387 114.92 166.15 114.739 166.023C110.479 163.048 106.355 159.558 102.069 155.928C91.6435 147.102 80.2179 137.43 63.6682 132.791C63.6579 132.788 63.6493 132.786 63.6391 132.784C62.8438 132.619 62.246 131.914 62.246 131.069C62.246 130.102 63.0302 129.318 63.9974 129.318C77.7713 129.318 88.1528 131.671 96.6753 135.261C105.198 138.851 111.777 143.636 118.023 148.538C118.783 149.135 118.914 150.235 118.317 150.995C117.721 151.754 116.621 151.886 115.861 151.289C109.798 146.529 103.43 141.892 95.3208 138.476C90.4328 136.417 84.8819 134.786 78.3367 133.815C78.122 133.783 77.9202 133.909 77.8552 134.116C77.7894 134.323 77.8826 134.542 78.0767 134.639C88.4677 139.833 96.6618 146.77 104.327 153.26C113.055 160.649 121.078 167.442 130.72 170.127C131.649 170.384 132.194 171.346 131.938 172.275C131.714 173.082 130.959 173.6 130.155 173.554C130.148 173.554 130.142 173.553 130.135 173.553L130.134 173.554ZM55.5226 148.785C56.4709 148.615 57.3774 149.246 57.5475 150.195C57.7177 151.143 57.0866 152.05 56.1383 152.22C53.9329 152.615 50.8501 153.139 47.5681 152.8C44.1389 152.445 40.5636 151.166 37.6303 147.898C36.9881 147.18 37.0496 146.077 37.7671 145.435C38.4846 144.793 39.5877 144.854 40.2299 145.572C42.4688 148.067 45.2453 149.049 47.9238 149.325C50.7492 149.617 53.53 149.143 55.5226 148.785ZM120.329 59.6727C117.944 59.163 115.28 59.1425 112.656 59.3631C109.349 59.641 106.155 60.2935 103.601 60.8579C101.946 61.2239 100.539 61.0657 99.2195 60.5561C97.9975 60.0849 96.9276 59.34 95.8151 58.4507C94.6709 57.5365 92.6819 57.0876 90.5807 56.8746C88.2871 56.642 85.8825 56.7019 84.1518 56.7618C83.188 56.7917 82.3825 56.0357 82.3525 55.072C82.3226 54.1082 83.0785 53.3027 84.0423 53.2727C85.8757 53.2095 88.4283 53.1462 90.9229 53.3993C93.6097 53.6712 96.2411 54.3169 97.9907 55.7141C98.8698 56.4162 99.6787 56.9909 100.478 57.2996C101.18 57.5698 101.939 57.6519 102.849 57.4509C105.52 56.86 108.847 56.1802 112.248 55.8843C112.411 55.8698 112.544 55.7749 112.61 55.6244C112.676 55.4739 112.656 55.3114 112.557 55.1814C109.364 51.0193 108.158 44.5621 107.099 38.8755C106.905 37.8374 106.717 36.8249 106.555 36.0219C105.529 30.915 106.607 30.5481 109.738 29.4817C110.226 29.315 110.797 29.1209 111.436 28.8455C111.634 28.7609 111.739 28.5496 111.688 28.341C111.638 28.1323 111.449 27.9921 111.234 28.0066L108.248 28.2025C102.689 28.5668 99.1764 18.5504 96.806 11.7886C96.5375 11.0233 96.2852 10.3041 96.0321 9.60717C96.0047 9.53277 95.9765 9.44982 95.9474 9.35833C95.2855 7.29914 95.7157 5.45546 96.8667 3.92391C97.8954 2.55567 99.5073 1.48932 101.39 0.804325C101.543 0.74874 101.708 0.6923 101.883 0.635861C102.801 0.340826 103.784 0.846229 104.079 1.76465C104.374 2.68307 103.869 3.66564 102.95 3.96061C102.834 3.99824 102.71 4.04014 102.58 4.08803C101.307 4.55067 100.262 5.2134 99.6578 6.01724C99.1755 6.65861 98.9959 7.42994 99.2721 8.29114C99.2823 8.32364 99.2969 8.36554 99.3157 8.41685C99.5491 9.05736 99.8177 9.82358 100.103 10.6393C102.119 16.3885 105.106 24.9058 108.029 24.7133L112.673 24.4089C113.739 24.3388 114.62 24.7227 115.267 25.3572C115.73 25.8105 116.052 26.3826 116.217 26.9923C116.375 27.5747 116.393 28.2134 116.255 28.8343C116.043 29.7912 115.466 30.6823 114.468 31.2389C112.976 32.071 111.789 32.4754 110.86 32.7919C109.888 33.1228 109.553 33.2365 109.975 35.3368C110.185 36.3792 110.357 37.3002 110.533 38.2451C111.89 45.5232 113.516 54.2397 119.223 55.7653C120.381 56.0749 120.555 56.1202 120.736 56.1681L121.105 56.2647C121.111 56.2664 121.116 56.2673 121.123 56.269C121.698 56.3938 122.264 56.5435 122.817 56.7205C122.823 56.7222 122.828 56.7239 122.834 56.7256C128.656 58.3205 132.585 60.0368 135.63 67.4732C137.481 71.9928 138.576 74.5521 140.402 75.6244C142.182 76.6685 145.079 76.6745 150.448 76.105C150.452 76.1041 150.456 76.1041 150.461 76.1033C150.826 76.0537 151.187 76.0135 151.546 75.9844C151.55 75.9844 151.554 75.9836 151.559 75.9836L151.618 75.9767C151.671 75.9707 151.723 75.9673 151.775 75.9665C151.783 75.9665 151.789 75.9656 151.796 75.9656C153.049 75.8784 154.254 75.9143 155.393 76.0691C158.143 76.4436 160.526 77.5049 162.31 79.1843C164.127 80.8954 165.3 83.2172 165.59 86.0776C165.842 88.5695 165.409 91.4693 164.117 94.7204C162.701 98.2838 161.305 101.947 160.367 105.575C159.456 109.095 158.98 112.587 159.357 115.925C159.902 120.765 160.321 125.063 160.431 129.167C160.541 133.285 160.332 137.142 159.616 141.043C159.442 141.991 158.532 142.619 157.584 142.445C156.636 142.272 156.008 141.362 156.181 140.413C156.851 136.765 157.046 133.138 156.942 129.249C156.837 125.344 156.423 121.111 155.881 116.308C155.453 112.51 155.977 108.604 156.987 104.699C157.969 100.902 159.413 97.1132 160.875 93.4343C161.948 90.7337 162.314 88.3847 162.115 86.4195C161.952 84.817 161.401 83.4735 160.548 82.4131C160.421 82.2558 160.212 82.2053 160.028 82.2882C159.844 82.3703 159.742 82.5602 159.775 82.7594C160.22 85.4412 159.886 89.0772 158.573 93.8651C157.953 96.1211 157.156 98.3862 156.148 100.166C154.965 102.256 153.449 103.746 151.509 104.037L150.505 104.188C150.379 104.206 150.277 104.271 150.206 104.378C150.135 104.485 150.114 104.604 150.146 104.728C152.015 112.126 153.339 118.364 153.81 123.831C154.346 130.048 153.791 135.301 151.708 140.128C151.327 141.015 150.297 141.426 149.41 141.045C148.522 140.663 148.112 139.634 148.493 138.746C150.328 134.493 150.809 129.773 150.321 124.119C149.818 118.284 148.296 111.49 146.165 103.255C145.923 102.322 146.484 101.369 147.417 101.127C147.479 101.111 147.54 101.099 147.603 101.089L147.602 101.086L151.004 100.576C151.717 100.469 152.434 99.6383 153.112 98.4419C153.965 96.936 154.658 94.9504 155.208 92.9484C158.468 81.0644 153.796 78.8238 146.656 80.6445C138.127 82.82 126.564 89.7844 118.606 94.946C115.789 96.7735 108.024 101.86 101.039 106.653C98.814 108.18 96.6813 109.668 94.8358 110.996C94.7298 111.073 94.6682 111.179 94.6562 111.309C94.6434 111.439 94.6836 111.556 94.7725 111.651C95.0941 111.994 95.3771 112.362 95.6183 112.755C95.7671 112.997 95.8979 113.244 96.0108 113.493C96.541 114.668 96.6753 115.766 96.5213 116.746C96.3862 117.608 96.0313 118.358 95.5242 118.976C95.0325 119.576 94.4048 120.042 93.7062 120.358C92.7441 120.792 91.6256 120.949 90.5284 120.776C89.5372 120.62 88.5709 120.205 87.7987 119.595C87.0342 118.992 86.4347 118.196 86.138 117.258C85.8318 116.289 85.8515 115.205 86.3466 114.071C86.5972 113.498 86.9718 112.916 87.4934 112.34C87.6011 112.221 87.6345 112.065 87.5857 111.913C87.537 111.76 87.4198 111.653 87.2633 111.619C83.6212 110.817 78.682 110.786 73.5742 111.198C67.3103 111.704 60.8743 112.909 56.1317 114.219C56.0085 114.253 55.9145 114.329 55.8572 114.443C55.7999 114.558 55.7939 114.679 55.8401 114.798C56.2377 115.829 56.3814 116.958 56.2078 118.16C56.0658 119.144 55.711 120.164 55.1081 121.202C54.3496 122.507 53.0959 123.267 51.7534 123.569C50.3073 123.896 48.7073 123.671 47.5504 123.018C46.602 122.482 45.929 121.826 45.4869 121.105C44.9815 120.279 44.784 119.391 44.8318 118.502C44.8763 117.677 45.1371 116.866 45.5587 116.119C46.0932 115.174 46.8945 114.324 47.8326 113.697C47.9865 113.595 48.0567 113.417 48.0165 113.236C47.9754 113.056 47.8352 112.926 47.6522 112.9H47.6513C45.1962 112.546 42.1878 112.728 39.1288 113.159C36.0007 113.6 32.8255 114.305 30.1138 114.976C25.4412 116.132 20.6217 115.587 16.6889 113.667C14.6784 112.685 12.8896 111.338 11.4563 109.668C10.0137 107.987 8.94137 105.985 8.37787 103.704C7.4603 99.997 7.89387 95.5912 10.2831 90.6991C10.7064 89.8302 11.754 89.4685 12.6229 89.8918C13.4918 90.3151 13.8535 91.3627 13.4302 92.2316C11.4292 96.3295 11.0418 99.9211 11.7712 102.87C12.1988 104.597 13.0137 106.118 14.111 107.397C15.2184 108.687 16.6242 109.74 18.2216 110.52C21.448 112.096 25.4177 112.539 29.2796 111.583C32.082 110.889 35.3743 110.159 38.6504 109.697C41.9966 109.225 45.3318 109.034 48.1442 109.439C49.6672 109.659 51.0928 110.146 52.3054 110.851C52.5577 110.997 52.8005 111.153 53.0331 111.318C53.1477 111.399 53.2803 111.42 53.4145 111.379C58.5232 109.809 66.0553 108.295 73.3019 107.71C80.0148 107.168 86.5594 107.447 90.9907 109.222C91.1352 109.28 91.2874 109.26 91.4131 109.168C93.5758 107.578 96.255 105.699 99.0709 103.768C105.982 99.0251 113.841 93.8779 116.707 92.0197C122.941 87.9765 131.347 82.8516 138.971 79.6278C139.131 79.5603 139.231 79.4158 139.237 79.2422C139.244 79.0686 139.156 78.9163 139.001 78.836C138.878 78.7718 138.758 78.7051 138.639 78.6359C135.825 76.9846 134.539 74.0171 132.403 68.8016C129.74 62.2991 126.04 61.1704 120.35 59.6771C120.343 59.6754 120.337 59.6737 120.33 59.6728L120.329 59.6727ZM91.2959 113.632C91.1189 113.769 90.9505 113.903 90.7897 114.032C90.127 114.563 89.7344 115.044 89.5489 115.469C89.4249 115.753 89.412 116.001 89.477 116.206C89.5514 116.442 89.7276 116.663 89.961 116.847C90.2792 117.098 90.6691 117.268 91.0625 117.33C91.4798 117.396 91.9048 117.337 92.2699 117.172C92.4966 117.069 92.6898 116.931 92.8292 116.761C92.9532 116.61 93.0404 116.426 93.0738 116.215C93.1268 115.88 93.0575 115.452 92.8232 114.932C92.7659 114.806 92.7035 114.687 92.6359 114.577C92.4316 114.243 92.1707 113.935 91.8603 113.653C91.7013 113.508 91.4661 113.5 91.2968 113.632L91.2959 113.632ZM51.9148 115.584C51.5556 115.724 51.223 115.863 50.9194 116C50.5063 116.187 50.1634 116.362 49.9001 116.524C49.3459 116.862 48.8833 117.326 48.5977 117.831C48.4361 118.118 48.3369 118.409 48.3215 118.682C48.3103 118.892 48.3548 119.099 48.4703 119.287C48.6173 119.527 48.873 119.762 49.2613 119.982C49.7025 120.231 50.3584 120.306 50.9878 120.164C51.4513 120.06 51.8661 119.828 52.085 119.453C52.4544 118.817 52.6673 118.22 52.7468 117.669C52.8452 116.987 52.7366 116.358 52.4681 115.801C52.368 115.595 52.1286 115.5 51.9148 115.584ZM137.466 182.063L129.214 227.974C129.19 228.112 129.226 228.242 129.321 228.345C129.415 228.45 129.539 228.499 129.68 228.488C131.086 228.377 132.463 228.167 133.778 227.854C133.95 227.813 134.075 227.68 134.107 227.505L142.262 182.13C142.286 181.99 142.249 181.86 142.153 181.756C142.057 181.652 141.931 181.603 141.789 181.617C141.556 181.639 141.324 181.658 141.092 181.673C140.056 181.744 139.016 181.755 137.917 181.701C137.696 181.69 137.504 181.843 137.465 182.061L137.466 182.063ZM126.956 228.215L135.272 181.94C135.294 181.816 135.267 181.702 135.192 181.601C135.117 181.5 135.014 181.442 134.889 181.427L70.6607 174.307C70.4794 174.287 70.3127 174.375 70.2263 174.535C70.1399 174.696 70.1596 174.884 70.2768 175.024L110.391 222.765L110.393 222.764C110.534 222.915 110.674 223.057 110.811 223.19C114.181 226.437 120.031 228.318 125.974 228.557C126.153 228.564 126.332 228.57 126.512 228.575C126.729 228.58 126.915 228.428 126.953 228.215L126.956 228.215ZM145.971 181.218L138 225.573C137.969 225.743 138.035 225.904 138.175 226.005C138.316 226.106 138.49 226.117 138.641 226.034C139.642 225.484 140.551 224.842 141.341 224.104C141.491 223.964 141.63 223.828 141.758 223.696L193.392 170.461C193.947 169.885 194.361 169.386 194.641 168.965C194.732 168.828 194.74 168.665 194.664 168.518C194.588 168.373 194.448 168.287 194.284 168.284C193.67 168.274 192.868 168.363 191.887 168.557V168.559L146.288 180.874C146.121 180.919 146.002 181.048 145.972 181.219L145.971 181.218ZM195.127 168.284L195.145 168.313L195.143 168.31C195.139 168.302 195.135 168.296 195.13 168.289L195.127 168.284ZM195.145 168.313C195.148 168.319 195.151 168.322 195.151 168.323C195.151 168.323 195.149 168.32 195.145 168.313Z" fill="#F3F4EC"/>
</svg>
