<?xml version="1.0" encoding="UTF-8"?>
<svg width="1200pt" height="1200pt" version="1.1" viewBox="0 0 1200 1200" xmlns="http://www.w3.org/2000/svg">
 <path fill="#3a6255" d="m441.16 841.85 1.6953 2.0195c0.09375 0.10937 0.17969 0.19531 0.29297 0.28516 3.1992 2.5195 8.8008 4.3867 16.805 4.6055h0.125c0.38281-0.011718 0.76953 0 1.1602 0.042969l305.7 33.887v0.007812c6.8164 0.67969 12.965 0.76953 19.113 0.34766 6.082-0.41406 12.098-1.3164 18.676-2.6328 0.046875-0.007812 0.085938-0.019531 0.12891-0.03125l210.16-56.758 0.003907 0.023437c0.16406-0.042969 0.32812-0.082031 0.49609-0.11719 6.0781-1.2344 11.363-1.7461 15.781-1.582 0.97266 0.035157 1.8125-0.60937 2.0234-1.5586 0.21484-0.94922-0.26562-1.8906-1.1602-2.2773-3.1875-1.375-7.0898-2.4297-11.535-3.1641-0.042969-0.007812-0.082032-0.011718-0.125-0.015624l-0.12891-0.011719c-0.011719 0-0.019531-0.003907-0.03125-0.003907l-101.59-11.844c-4.3828-0.5-7.5312-4.4609-7.0312-8.8438 0.5-4.3828 4.4609-7.5312 8.8438-7.0312l101.61 11.848c0.29688 0.035156 0.58984 0.085937 0.875 0.14844 0.042969 0.007813 0.078125 0.015625 0.11719 0.023438 8.4141 1.3906 15.676 3.8359 21.168 7.3438 5.5547 3.543 9.4141 8.1445 11.109 13.82 1.6797 5.6289 1.125 11.914-2.1445 18.793-3.2305 6.793-9.2891 14.371-18.762 22.672-0.03125 0.027344-0.066407 0.058594-0.097657 0.085938-0.046875 0.039062-0.085937 0.074218-0.12891 0.11719-77.664 78.199-157.3 159.75-232.65 239.94-0.85156 0.88281-1.6953 1.7148-2.5273 2.4922-9.2031 8.5898-21.086 14.84-34.324 18.91-0.039063 0.011719-0.070313 0.023437-0.10547 0.035156-0.30078 0.11328-0.60938 0.20312-0.92578 0.28125-0.039063 0.007813-0.070313 0.015625-0.10547 0.027344-14.414 4.2695-30.379 5.9883-46.223 5.3516-30.758-1.2383-61.461-11.379-79.699-28.957-0.90625-0.87109-1.75-1.7305-2.5352-2.5703l0.015625-0.011719c-0.089844-0.097656-0.17969-0.19531-0.26562-0.30078l-203.45-242.13c-0.054687-0.0625-0.10156-0.11328-0.16016-0.17188-0.66016-0.62109-1.2734-1.2617-1.8281-1.918-2.7109-3.1875-4.3086-6.7305-4.75-10.348-0.47266-3.8594 0.34766-7.7148 2.5-11.266 3.5625-5.8828 10.926-10.672 22.16-12.277 4.793-0.68359 10.184-0.84375 15.723-1.0039 2.1133-0.0625 4.2539-0.125 6.8203-0.24609 4.4023-0.20703 8.1367 3.1914 8.3438 7.5938 0.20703 4.4023-3.1914 8.1367-7.5938 8.3438-2.082 0.097656-4.6211 0.17188-7.1328 0.24609-4.9453 0.14453-9.7578 0.28125-13.91 0.87891-5.793 0.82812-9.2422 2.5156-10.613 4.4531-0.53125 0.75391-0.49219 1.7344 0.10156 2.4414zm378.59-29.051c-2.75 0.22656-5.1641-1.8203-5.3906-4.5703-0.22656-2.75 1.8203-5.1641 4.5703-5.3906 9.4258-0.80469 17.578-2.6172 24.555-5.9219 6.8164-3.2305 12.613-7.9492 17.523-14.648 1.6289-2.2227 4.75-2.7031 6.9727-1.0742 2.2227 1.6289 2.7031 4.75 1.0742 6.9727-5.9375 8.1055-12.992 13.832-21.312 17.773-8.1523 3.8633-17.426 5.957-27.992 6.8594zm-132.32-10.117c-3.1914-3.0195-3.332-8.0586-0.3125-11.25 3.0195-3.1914 8.0586-3.332 11.25-0.3125 2.9688 2.8086 6.3672 5.6055 10.137 8.3711 22.387 16.406 54.703 28.309 86.547 30.762 31.125 2.3945 61.531-4.2852 80.93-24.801 1.8711-1.9805 3.7148-4.1953 5.5234-6.6641 4.7383-6.4609 8.9336-14.191 12.648-23.383 2.6562-6.5781 5.0586-13.863 7.2266-21.918 0.16016-0.58984 0.058594-1.1602-0.28906-1.6602s-0.85156-0.79297-1.457-0.84766l-4.1094-0.37891c-70.871-6.5469-90.73-8.3828-159.14 48.883-3.3203 2.7773-8.2344 2.3984-11.09-0.81641l-0.003907 0.003907c-26.555-29.832-40.746-56.418-41.289-85.316-0.53906-28.613 12.484-58.566 40.34-95.254 2.6562-3.5039 7.6523-4.1875 11.156-1.5312 0.25 0.19141 0.48438 0.39062 0.70703 0.60547l0.011719-0.011719 2.9961 2.8867c24.215 23.285 52.465 50.445 52.879 98.328 0.035156 4.4023-3.5039 7.9961-7.9062 8.0312s-7.9961-3.5039-8.0312-7.9062c-0.33203-37.934-22.164-61.859-42.809-81.938-0.43359-0.42188-0.97266-0.61328-1.5742-0.55859-0.60156 0.054688-1.0977 0.33984-1.4492 0.83203-20.973 29.5-30.812 53.73-30.387 76.266 0.41797 22.277 11.031 43.656 30.961 67.598 0.69922 0.84375 1.9531 0.96094 2.8047 0.26953 67.469-55.09 89.891-53.027 163.26-46.25 5.25 0.48438 10.742 0.99219 15.414 1.4062 0.015625 0 0.027344 0.003906 0.042968 0.003906 0.39453 0.027344 0.79297 0.082032 1.1914 0.17188 4.2969 0.94922 7.0117 5.2031 6.0625 9.5-3.0391 13.578-6.5898 25.352-10.703 35.539-4.2305 10.477-9.0742 19.363-14.586 26.883-2.0547 2.8008-4.3398 5.5234-6.8359 8.1641-23.141 24.469-58.211 32.527-93.68 29.801-34.754-2.6758-70.156-15.762-94.797-33.824-4.0977-3.0039-7.9961-6.2383-11.637-9.6836zm-156.23-27.926c-27.516-16.242-63.066-6.0312-99.551 4.9766-0.74609 0.22656-1.2695 0.81641-1.3945 1.5898-0.12891 0.76953 0.17188 1.5 0.80859 1.9531 9.4375 6.7578 14.867 10.234 19.398 11.121 4.9883 0.97266 11.254-1.0898 23.543-5.1367 3.4492-1.1367 7.3164-2.4102 11.621-3.7695 12.348-3.9023 28.605-7.5703 44.488-7.0078 0.92578 0.03125 1.7305-0.55078 1.9922-1.4414 0.25781-0.89062-0.10547-1.8125-0.90234-2.2812zm-106.56-9.6172c56.445-17.047 111.22-33.594 146.32 30.008h-0.003906c1.6211 2.9492 1.2461 6.7266-1.1836 9.3125-3.0195 3.2109-8.0703 3.3633-11.281 0.34375-6.9219-6.5234-16.18-9.4258-25.992-10.188-14.535-1.125-30.234 2.3828-42.059 6.1172-4.3516 1.375-8.0977 2.6094-11.434 3.707-14.906 4.9102-22.512 7.4141-31.605 5.6367-9.0547-1.7695-16.973-7.5117-33.133-19.23l-8.4805-6.1523c-0.039062-0.027344-0.070312-0.050781-0.10938-0.074218-1.6133-1.0117-2.875-2.6016-3.4375-4.582-1.207-4.2461 1.2539-8.668 5.5-9.875 5.2305-1.5039 11.078-3.2695 16.902-5.0312zm-127.04-39.875c-8.7109 13.094-20.945 21.297-35.41 25.051-15.824 4.1055-34.18 2.7539-53.289-3.4492-4.1953-1.3633-6.4883-5.8672-5.125-10.062 1.3633-4.1953 5.8672-6.4883 10.062-5.125 16.266 5.2812 31.555 6.5195 44.348 3.1992 10.012-2.5977 18.578-8.0938 24.922-16.754 0.41016-0.55859 0.50391-1.2266 0.26172-1.875-0.24219-0.64844-0.74609-1.0977-1.4219-1.2539-2.7852-0.64844-5.668-1.0664-8.6016-1.2969-14.535-1.125-30.234 2.3828-42.059 6.1172-4.3516 1.375-8.0977 2.6094-11.434 3.707-14.906 4.9102-22.512 7.4141-31.605 5.6367-9.0547-1.7695-16.973-7.5117-33.133-19.23l-8.4805-6.1523c-0.039063-0.027344-0.070313-0.050782-0.10938-0.074219-1.6133-1.0117-2.875-2.6016-3.4375-4.582-1.207-4.2461 1.2539-8.668 5.5-9.875 5.2305-1.5039 11.078-3.2695 16.902-5.0312 56.445-17.047 111.22-33.594 146.32 30.008h-0.003906c1.6211 2.9492 1.2461 6.7266-1.1836 9.3125-2.7109 2.8828-7.0625 3.3008-10.246 1.1719-0.45703-0.30859-0.96094-0.40625-1.5039-0.30078-0.53906 0.10938-0.96875 0.39453-1.2734 0.85547zm-25.547-31.426c-27.516-16.242-63.066-6.0312-99.551 4.9766-0.74609 0.22656-1.2695 0.81641-1.3945 1.5898-0.12891 0.76953 0.17188 1.5 0.80859 1.9531 9.4375 6.7578 14.867 10.234 19.398 11.121 4.9883 0.97266 11.254-1.0898 23.543-5.1367 3.4492-1.1367 7.3164-2.4102 11.621-3.7695 12.348-3.9023 28.605-7.5703 44.488-7.0078 0.92578 0.03125 1.7305-0.55078 1.9922-1.4414 0.25781-0.89062-0.10547-1.8125-0.90234-2.2812zm465 168.06c-40.844-0.56641-78.477-15.68-110.42-28.508-13.262-5.3242-25.508-10.246-36.297-13.41-4.2266-1.2422-6.6484-5.6797-5.4062-9.9062 1.2422-4.2266 5.6797-6.6484 9.9062-5.4062 11.5 3.375 24.094 8.4336 37.734 13.91 10.223 4.1055 21.055 8.4531 32.348 12.449 0.94922 0.33594 1.9844-0.074219 2.4453-0.97266 0.46094-0.89453 0.19141-1.9766-0.63281-2.5547-19.461-13.59-38.297-29.531-57.879-46.113-47.621-40.316-99.812-84.5-175.41-105.69-0.046875-0.011718-0.085938-0.023437-0.13281-0.03125-3.6328-0.75391-6.3633-3.9727-6.3633-7.832 0-4.418 3.582-8 8-8 62.918 0 110.34 10.746 149.27 27.145 38.93 16.398 68.984 38.258 97.516 60.652 3.4688 2.7266 4.0703 7.75 1.3438 11.219s-7.75 4.0703-11.219 1.3438c-27.699-21.742-56.785-42.922-93.828-58.527-22.328-9.4062-47.684-16.855-77.582-21.293-0.98047-0.14453-1.9023 0.42969-2.1992 1.375-0.30078 0.94531 0.125 1.9492 1.0117 2.3906 47.465 23.727 84.895 55.414 119.91 85.059 39.867 33.754 76.516 64.781 120.56 77.047 4.2461 1.1719 6.7344 5.5664 5.5625 9.8125-1.0195 3.6875-4.4688 6.0508-8.1445 5.8398-0.03125 0-0.058594-0.003906-0.089844-0.003906zm-340.82-113.14c4.332-0.77734 8.4727 2.1055 9.25 6.4375 0.77734 4.332-2.1055 8.4727-6.4375 9.25-10.074 1.8047-24.156 4.1992-39.148 2.6523-15.664-1.6211-31.996-7.4648-45.395-22.395-2.9336-3.2773-2.6523-8.3164 0.625-11.25 3.2773-2.9336 8.3164-2.6523 11.25 0.625 10.227 11.398 22.91 15.883 35.145 17.145 12.906 1.3359 25.609-0.83203 34.711-2.4648zm296.03-407.06c-10.895-2.3281-23.062-2.4219-35.051-1.4141-15.105 1.2695-29.695 4.25-41.359 6.8281-7.5625 1.6719-13.988 0.94922-20.016-1.3789-5.582-2.1523-10.469-5.5547-15.551-9.6172-5.2266-4.1758-14.312-6.2266-23.91-7.1992-10.477-1.0625-21.461-0.78906-29.367-0.51562-4.4023 0.13672-8.082-3.3164-8.2188-7.7188s3.3164-8.082 7.7188-8.2188c8.375-0.28906 20.035-0.57812 31.43 0.57812 12.273 1.2422 24.293 4.1914 32.285 10.574 4.0156 3.207 7.7109 5.832 11.363 7.2422 3.207 1.2344 6.6719 1.6094 10.828 0.69141 12.203-2.6992 27.402-5.8047 42.934-7.1562 0.74609-0.066406 1.3555-0.5 1.6562-1.1875 0.30078-0.6875 0.21094-1.4297-0.24219-2.0234-14.586-19.012-20.094-48.508-24.934-74.484-0.88281-4.7422-1.7461-9.3672-2.4844-13.035-4.6875-23.328 0.23828-25.004 14.539-29.875 2.2305-0.76172 4.8398-1.6484 7.7578-2.9062 0.90234-0.38672 1.3828-1.3516 1.1523-2.3047s-1.0938-1.5938-2.0742-1.5273l-13.641 0.89453c-25.395 1.6641-41.438-44.09-52.266-74.977-1.2266-3.4961-2.3789-6.7812-3.5352-9.9648-0.125-0.33984-0.25391-0.71875-0.38672-1.1367-3.0234-9.4062-1.0586-17.828 4.1992-24.824 4.6992-6.25 12.062-11.121 20.66-14.25 0.70312-0.25391 1.4531-0.51172 2.2539-0.76953 4.1953-1.3477 8.6836 0.96094 10.031 5.1562 1.3477 4.1953-0.96094 8.6836-5.1562 10.031-0.53125 0.17187-1.0977 0.36328-1.6914 0.58203-5.8125 2.1133-10.586 5.1406-13.348 8.8125-2.2031 2.9297-3.0234 6.4531-1.7617 10.387 0.046875 0.14844 0.11328 0.33984 0.19922 0.57422 1.0664 2.9258 2.293 6.4258 3.5977 10.152 9.207 26.262 22.852 65.168 36.203 64.289l21.215-1.3906c4.8711-0.32031 8.8945 1.4336 11.848 4.332 2.1133 2.0703 3.5859 4.6836 4.3398 7.4688 0.72266 2.6602 0.80469 5.5781 0.17578 8.4141-0.96875 4.3711-3.6055 8.4414-8.1641 10.984-6.8164 3.8008-12.238 5.6484-16.484 7.0938-4.4375 1.5117-5.9688 2.0312-4.0391 11.625 0.95703 4.7617 1.7422 8.9688 2.5469 13.285 6.1992 33.246 13.625 73.062 39.695 80.031 5.293 1.4141 6.0859 1.6211 6.9102 1.8398l1.6875 0.44141c0.027344 0.007813 0.050781 0.011719 0.082031 0.019532 2.6289 0.57031 5.2109 1.2539 7.7383 2.0625 0.027344 0.007812 0.050782 0.015625 0.078126 0.023437 26.594 7.2852 44.543 15.125 58.453 49.094 8.4531 20.645 13.453 32.336 21.797 37.234 8.1289 4.7695 21.363 4.7969 45.887 2.1953 0.019532-0.003907 0.039063-0.003907 0.058594-0.007813 1.668-0.22656 3.3203-0.41016 4.957-0.54297 0.019531 0 0.039063-0.003907 0.058594-0.003907l0.26953-0.03125c0.24219-0.027343 0.48047-0.042969 0.71875-0.046875 0.035156 0 0.066406-0.003906 0.097656-0.003906 5.7227-0.39844 11.227-0.23438 16.43 0.47266 12.562 1.7109 23.445 6.5586 31.594 14.23 8.3008 7.8164 13.66 18.422 14.984 31.488 1.1523 11.383-0.82422 24.629-6.7266 39.48-6.4688 16.277-12.848 33.012-17.133 49.582-4.1602 16.078-6.332 32.031-4.6133 47.277 2.4922 22.109 4.4062 41.742 4.9062 60.488 0.50391 18.812-0.45312 36.43-3.7227 54.25-0.79297 4.332-4.9492 7.1992-9.2812 6.4062-4.332-0.79297-7.1992-4.9492-6.4062-9.2812 3.0586-16.664 3.9492-33.234 3.4727-51-0.47656-17.836-2.3711-37.172-4.8438-59.113-1.957-17.348 0.4375-35.191 5.0508-53.027 4.4844-17.344 11.082-34.652 17.758-51.457 4.9023-12.336 6.5742-23.066 5.6641-32.043-0.74219-7.3203-3.2578-13.457-7.1562-18.301-0.57812-0.71875-1.5352-0.94922-2.375-0.57031-0.83984 0.375-1.3086 1.2422-1.1562 2.1523 2.0352 12.25 0.50781 28.859-5.4922 50.73-2.8281 10.305-6.4688 20.652-11.074 28.781-5.4062 9.5469-12.328 16.355-21.191 17.684l-4.5859 0.6875c-0.57812 0.085937-1.043 0.38281-1.3672 0.87109-0.32422 0.48828-0.41797 1.0312-0.27344 1.5977 8.5352 33.793 14.586 62.289 16.738 87.262 2.4492 28.398-0.085937 52.391-9.6016 74.441-1.7422 4.0547-6.4453 5.9297-10.5 4.1875-4.0547-1.7422-5.9297-6.4453-4.1875-10.5 8.3828-19.426 10.578-40.988 8.3516-66.816-2.2969-26.652-9.25-57.688-18.984-95.305-1.1055-4.2617 1.457-8.6133 5.7188-9.7188 0.28125-0.074219 0.5625-0.12891 0.84766-0.17188l-0.003906-0.015625 15.539-2.332c3.2578-0.48828 6.5312-4.2812 9.6289-9.7461 3.8984-6.8789 7.0625-15.949 9.5742-25.094 14.895-54.285-6.4492-64.52-39.062-56.203-38.961 9.9375-91.781 41.75-128.13 65.328-12.871 8.3477-48.34 31.582-80.246 53.477-10.164 6.9727-19.906 13.773-28.336 19.84-0.48438 0.34766-0.76562 0.83594-0.82031 1.4297-0.058594 0.59375 0.125 1.125 0.53125 1.5625 1.4688 1.5664 2.7617 3.2461 3.8633 5.043 0.67969 1.1055 1.2773 2.2305 1.793 3.3711 2.4219 5.3633 3.0352 10.383 2.332 14.859-0.61719 3.9375-2.2383 7.3633-4.5547 10.184-2.2461 2.7422-5.1133 4.8711-8.3047 6.3125-4.3945 1.9844-9.5039 2.6992-14.516 1.9102-4.5273-0.71094-8.9414-2.6094-12.469-5.3945-3.4922-2.7539-6.2305-6.3906-7.5859-10.676-1.3984-4.4258-1.3086-9.3789 0.95312-14.555 1.1445-2.6211 2.8555-5.2773 5.2383-7.9102 0.49219-0.54297 0.64453-1.2539 0.42187-1.9492-0.22266-0.69922-0.75781-1.1875-1.4727-1.3438-16.637-3.6641-39.199-3.8047-62.531-1.9219-28.613 2.3125-58.012 7.8164-79.676 13.797-0.5625 0.15625-0.99219 0.50391-1.2539 1.0273s-0.28906 1.0742-0.078125 1.6211c1.8164 4.707 2.4727 9.8672 1.6797 15.355-0.64844 4.4961-2.2695 9.1562-5.0234 13.898-3.4648 5.9609-9.1914 9.4297-15.324 10.812-6.6055 1.4922-13.914 0.46484-19.199-2.5195-4.332-2.4492-7.4062-5.4414-9.4258-8.7383-2.3086-3.7734-3.2109-7.8281-2.9922-11.887 0.20312-3.7695 1.3945-7.4766 3.3203-10.887 2.4414-4.3164 6.1016-8.1992 10.387-11.062 0.70312-0.46875 1.0234-1.2812 0.83984-2.1055-0.1875-0.82422-0.82812-1.418-1.6641-1.5352h-0.003906c-11.215-1.6172-24.957-0.78906-38.93 1.1797-14.289 2.0156-28.793 5.2344-41.18 8.3008-21.344 5.2812-43.359 2.793-61.324-5.9805-9.1836-4.4844-17.355-10.637-23.902-18.266-6.5898-7.6797-11.488-16.824-14.062-27.242-4.1914-16.934-2.2109-37.059 8.7031-59.406 1.9336-3.9688 6.7188-5.6211 10.688-3.6875 3.9688 1.9336 5.6211 6.7188 3.6875 10.688-9.1406 18.719-10.91 35.125-7.5781 48.594 1.9531 7.8906 5.6758 14.836 10.688 20.68 5.0586 5.8945 11.48 10.703 18.777 14.266 14.738 7.1992 32.871 9.2227 50.512 4.8555 12.801-3.168 27.84-6.5039 42.805-8.6133 15.285-2.1562 30.52-3.0312 43.367-1.1797 6.957 1.0039 13.469 3.2305 19.008 6.4492 1.1523 0.66797 2.2617 1.3789 3.3242 2.1328 0.52344 0.37109 1.1289 0.46875 1.7422 0.27734 23.336-7.1719 57.742-14.086 90.844-16.758 30.664-2.4766 60.559-1.2031 80.801 6.9062 0.66016 0.26563 1.3555 0.17578 1.9297-0.24609 9.8789-7.2617 22.117-15.844 34.98-24.668 31.57-21.664 67.469-45.176 80.559-53.664 28.477-18.469 66.875-41.879 101.7-56.605 0.73047-0.30859 1.1875-0.96875 1.2188-1.7617s-0.37109-1.4883-1.0781-1.8555c-0.5625-0.29297-1.1133-0.59766-1.6562-0.91406-12.855-7.543-18.73-21.098-28.484-44.922-12.164-29.703-29.066-34.859-55.059-41.68-0.03125-0.007812-0.058594-0.015625-0.089844-0.019531zm-132.62 246.48c-0.80859 0.62891-1.5781 1.2383-2.3125 1.8281-3.0273 2.4258-4.8203 4.625-5.668 6.5664-0.56641 1.2969-0.625 2.4297-0.32812 3.3672 0.33984 1.0781 1.1445 2.0859 2.2109 2.9258 1.4531 1.1445 3.2344 1.9219 5.0312 2.207 1.9062 0.30078 3.8477 0.03125 5.5156-0.72266 1.0352-0.46875 1.918-1.1016 2.5547-1.875 0.56641-0.69141 0.96484-1.5312 1.1172-2.4961 0.24219-1.5312-0.074219-3.4844-1.1445-5.8594-0.26172-0.57812-0.54688-1.1211-0.85547-1.6211-0.93359-1.5273-2.125-2.9336-3.543-4.2227-0.72656-0.66016-1.8008-0.69922-2.5742-0.097656zm-179.89 8.918c-1.6406 0.64062-3.1602 1.2734-4.5469 1.9023-1.8867 0.85156-3.4531 1.6523-4.6562 2.3906-2.5312 1.5469-4.6445 3.6641-5.9492 5.9727-0.73828 1.3086-1.1914 2.6406-1.2617 3.8867-0.050782 0.95703 0.15234 1.9023 0.67969 2.7617 0.67188 1.0977 1.8398 2.1719 3.6133 3.1758 2.0156 1.1367 5.0117 1.4805 7.8867 0.83203 2.1172-0.47656 4.0117-1.5352 5.0117-3.25 1.6875-2.9023 2.6602-5.6289 3.0234-8.1484 0.44922-3.1133-0.046875-5.9883-1.2734-8.5312-0.45703-0.94141-1.5508-1.375-2.5273-0.99219zm390.79 303.67-37.691 209.72c-0.11328 0.62891 0.054688 1.2227 0.48438 1.6953 0.42969 0.47656 1 0.70312 1.6406 0.65234 6.4219-0.50781 12.715-1.4688 18.719-2.8984 0.78906-0.1875 1.3594-0.79297 1.5039-1.5938l37.25-207.27c0.11328-0.63672-0.058593-1.2305-0.49609-1.707-0.4375-0.47656-1.0156-0.69922-1.6602-0.63672-1.0664 0.10156-2.125 0.1875-3.1875 0.25781-4.7305 0.32422-9.4805 0.375-14.5 0.12891-1.0117-0.050782-1.8867 0.64844-2.0664 1.6445zm-48.008 210.82 37.988-211.38c0.10156-0.56641-0.023437-1.0898-0.36719-1.5508-0.34375-0.46094-0.8125-0.72656-1.3828-0.79297l-293.39-32.523c-0.82812-0.09375-1.5898 0.30859-1.9844 1.043-0.39453 0.73438-0.30469 1.5898 0.23047 2.2305l183.24 218.08 0.007812-0.007812c0.64453 0.69141 1.2852 1.3398 1.9102 1.9453 15.395 14.836 42.117 23.426 69.262 24.52 0.82031 0.03125 1.6367 0.058594 2.457 0.078125 0.99219 0.023438 1.8398-0.66797 2.0156-1.6445zm86.859-214.68-36.41 202.61c-0.14062 0.77734 0.16016 1.5156 0.80078 1.9766 0.64062 0.46094 1.4375 0.50781 2.1289 0.12891 4.5703-2.5117 8.7227-5.4453 12.332-8.8125 0.68359-0.64062 1.3203-1.2617 1.9023-1.8672l235.86-243.17c2.5352-2.6328 4.4297-4.9141 5.707-6.8359 0.41406-0.625 0.45312-1.3711 0.10547-2.0391-0.34766-0.66406-0.98828-1.0586-1.7383-1.0703-2.8008-0.046875-6.4648 0.35938-10.949 1.2461v0.007812l-208.29 56.254c-0.76563 0.20703-1.3086 0.79688-1.4453 1.5781zm224.54-59.082 0.082031 0.13281-0.007813-0.011719c-0.019531-0.035156-0.035156-0.0625-0.058594-0.097656zm0.082031 0.13281c0.015625 0.027343 0.027343 0.042969 0.027343 0.046875 0 0-0.007812-0.011719-0.027343-0.046875z" />
</svg>
